<?xml version="1.0" standalone="no"?>
<!DOCTYPE svg PUBLIC "-//W3C//DTD SVG 20010904//EN"
 "http://www.w3.org/TR/2001/REC-SVG-20010904/DTD/svg10.dtd">
<svg version="1.0" xmlns="http://www.w3.org/2000/svg"
 width="134.000000pt" height="134.000000pt" viewBox="0 0 134.000000 134.000000"
 preserveAspectRatio="xMidYMid meet">
<metadata>
Created by potrace 1.11, written by Peter Selinger 2001-2013
</metadata>
<g transform="translate(0.000000,134.000000) scale(0.100000,-0.100000)"
fill="#000000" stroke="none">
<path d="M630 1200 c-226 -70 -376 -257 -398 -493 l-7 -82 -36 3 c-20 2 -56
-2 -80 -9 -24 -7 -46 -13 -49 -13 -3 -1 -11 -5 -17 -9 -7 -5 -13 -5 -13 -1 0
3 -7 1 -15 -6 -9 -7 -15 -20 -13 -29 2 -12 18 -16 68 -17 67 -1 136 -25 175
-61 11 -10 33 -44 49 -76 15 -31 39 -69 53 -84 14 -15 36 -40 49 -54 30 -34
120 -94 176 -117 100 -43 248 -53 358 -24 123 31 268 135 334 240 51 81 75
175 75 295 0 174 -43 280 -162 398 -74 74 -165 125 -261 148 -69 17 -220 12
-286 -9z"/>
</g>
</svg>
